<svg xmlns="http://www.w3.org/2000/svg" width="459.23333740234375" height="603.2000122070312" style="
        width:459.23333740234375px;
        height:603.2000122070312px;
        background: transparent;
        fill: none;
">
        
        
        <svg xmlns="http://www.w3.org/2000/svg" class="role-diagram-draw-area"><g class="shapes-region" style="stroke: black; fill: none;"><g class="composite-shape"><path class="real" d=" M30,70 L154,70 L154,116 L30,116 Z" style="stroke-width: 1px; stroke: rgb(0, 0, 0); fill: none;"/></g><g class="composite-shape"><path class="real" d=" M30,387 L154,387 L154,421 L30,421 Z" style="stroke-width: 1px; stroke: rgb(0, 0, 0); fill: none;"/></g><g class="composite-shape"><path class="real" d=" M92,443 L154,481 L92,519 L30,481 Z" style="stroke-width: 1px; stroke: rgb(0, 0, 0); fill: none;"/></g><g class="arrow-line"><path class="connection real" stroke-dasharray="" d="  M10,170.48 L29.92,170.48" style="stroke: rgb(0, 0, 0); stroke-width: 1px; fill: none;"/><g stroke="#000" transform="matrix(-1,1.2246467991473532e-16,-1.2246467991473532e-16,-1,31.91668701171875,170.48333740234375)" style="stroke: rgb(0, 0, 0); stroke-width: 1px;"><path d=" M10.93,-3.29 Q4.96,-0.45 0,0 Q4.96,0.45 10.93,3.29"/></g></g><g class="arrow-line"><path class="connection real" stroke-dasharray="" d="  M10,170.48 L10,481" style="stroke: rgb(0, 0, 0); stroke-width: 1px; fill: none;"/></g><g class="arrow-line"><path class="connection real" stroke-dasharray="" d="  M10,481 L30,481" style="stroke: rgb(0, 0, 0); stroke-width: 1px; fill: none;"/></g><g class="composite-shape"><path class="real" d=" M61.04,541 L124.96,541 C133.27,541 140,549.95 140,561 C140,572.05 133.27,581 124.96,581 L61.04,581 C52.73,581 46,572.05 46,561 C46,549.95 52.73,541 61.04,541 Z" style="stroke-width: 1px; stroke: rgb(0, 0, 0); fill: none;"/></g><g class="composite-shape"><path class="real" d=" M30,6 L154,6 L154,52 L30,52 Z" style="stroke-width: 1px; stroke: rgb(0, 0, 0); fill: none;"/></g><g class="composite-shape"><path class="real" d=" M92,132 L154,170 L92,208 L30,170 Z" style="stroke-width: 1px; stroke: rgb(0, 0, 0); fill: none;"/></g><g class="composite-shape"><path class="real" d=" M235,132 L296,170 L235,208 L174,170 Z" style="stroke-width: 1px; stroke: rgb(0, 0, 0); fill: none;"/></g><g class="composite-shape"><path class="real" d=" M317,148 L441,148 L441,194 L317,194 Z" style="stroke-width: 1px; stroke: rgb(0, 0, 0); fill: none;"/></g><g class="composite-shape"><path class="real" d=" M30,230 L154,230 L154,276 L30,276 Z" style="stroke-width: 1px; stroke: rgb(0, 0, 0); fill: none;"/></g><g class="composite-shape"><path class="real" d=" M30,313 L154,313 L154,359 L30,359 Z" style="stroke-width: 1px; stroke: rgb(0, 0, 0); fill: none;"/></g><g class="composite-shape"><path class="real" d=" M174,230 L296,230 L296,276 L174,276 Z" style="stroke-width: 1px; stroke: rgb(0, 0, 0); fill: none;"/></g><g class="arrow-line"><path class="connection real" stroke-dasharray="" d="  M91,208 L91,228" style="stroke: rgb(0, 0, 0); stroke-width: 1px; fill: none;"/><g stroke="#000" transform="matrix(-1.8369701987210297e-16,-1,1,-1.8369701987210297e-16,91,230)" style="stroke: rgb(0, 0, 0); stroke-width: 1px;"><path d=" M10.93,-3.29 Q4.96,-0.45 0,0 Q4.96,0.45 10.93,3.29"/></g></g><g class="arrow-line"><path class="connection real" stroke-dasharray="" d="  M91,276 L91,311" style="stroke: rgb(0, 0, 0); stroke-width: 1px; fill: none;"/><g stroke="#000" transform="matrix(-1.8369701987210297e-16,-1,1,-1.8369701987210297e-16,91,313)" style="stroke: rgb(0, 0, 0); stroke-width: 1px;"><path d=" M10.93,-3.29 Q4.96,-0.45 0,0 Q4.96,0.45 10.93,3.29"/></g></g><g class="arrow-line"><path class="connection real" stroke-dasharray="" d="  M91,359 L91,385" style="stroke: rgb(0, 0, 0); stroke-width: 1px; fill: none;"/><g stroke="#000" transform="matrix(-1.8369701987210297e-16,-1,1,-1.8369701987210297e-16,91,387)" style="stroke: rgb(0, 0, 0); stroke-width: 1px;"><path d=" M10.93,-3.29 Q4.96,-0.45 0,0 Q4.96,0.45 10.93,3.29"/></g></g><g class="arrow-line"><path class="connection real" stroke-dasharray="" d="  M91,421 L91,441" style="stroke: rgb(0, 0, 0); stroke-width: 1px; fill: none;"/><g stroke="#000" transform="matrix(-1.8369701987210297e-16,-1,1,-1.8369701987210297e-16,91,443)" style="stroke: rgb(0, 0, 0); stroke-width: 1px;"><path d=" M10.93,-3.29 Q4.96,-0.45 0,0 Q4.96,0.45 10.93,3.29"/></g></g><g class="arrow-line"><path class="connection real" stroke-dasharray="" d="  M154,170 L172,170" style="stroke: rgb(0, 0, 0); stroke-width: 1px; fill: none;"/><g stroke="#000" transform="matrix(-1,1.2246467991473532e-16,-1.2246467991473532e-16,-1,173.99999999999997,170.00000000000003)" style="stroke: rgb(0, 0, 0); stroke-width: 1px;"><path d=" M10.93,-3.29 Q4.96,-0.45 0,0 Q4.96,0.45 10.93,3.29"/></g></g><g class="arrow-line"><path class="connection real" stroke-dasharray="" d="  M296,170.48 L314,170.48" style="stroke: rgb(0, 0, 0); stroke-width: 1px; fill: none;"/><g stroke="#000" transform="matrix(-1,1.2246467991473532e-16,-1.2246467991473532e-16,-1,316,170.48333740234378)" style="stroke: rgb(0, 0, 0); stroke-width: 1px;"><path d=" M10.93,-3.29 Q4.96,-0.45 0,0 Q4.96,0.45 10.93,3.29"/></g></g><g class="arrow-line"><path class="connection real" stroke-dasharray="" d="  M379,194 L379,294.5 L93,294.5" style="stroke: rgb(0, 0, 0); stroke-width: 1px; fill: none;"/><g stroke="#000" transform="matrix(1,-2.4492935982947064e-16,2.4492935982947064e-16,1,91,294.5)" style="stroke: rgb(0, 0, 0); stroke-width: 1px;"><path d=" M10.93,-3.29 Q4.96,-0.45 0,0 Q4.96,0.45 10.93,3.29"/></g></g><g class="arrow-line"><path class="connection real" stroke-dasharray="" d="  M235,208 L235,228" style="stroke: rgb(0, 0, 0); stroke-width: 1px; fill: none;"/><g stroke="#000" transform="matrix(-1.8369701987210297e-16,-1,1,-1.8369701987210297e-16,235,229.99999999999997)" style="stroke: rgb(0, 0, 0); stroke-width: 1px;"><path d=" M10.93,-3.29 Q4.96,-0.45 0,0 Q4.96,0.45 10.93,3.29"/></g></g><g class="arrow-line"><path class="connection real" stroke-dasharray="" d="  M235,276 L235,292.5" style="stroke: rgb(0, 0, 0); stroke-width: 1px; fill: none;"/><g stroke="#000" transform="matrix(-1.8369701987210297e-16,-1,1,-1.8369701987210297e-16,235,294.49999999999994)" style="stroke: rgb(0, 0, 0); stroke-width: 1px;"><path d=" M10.93,-3.29 Q4.96,-0.45 0,0 Q4.96,0.45 10.93,3.29"/></g></g><g class="arrow-line"><path class="connection real" stroke-dasharray="" d="  M91,52 L91,68" style="stroke: rgb(0, 0, 0); stroke-width: 1px; fill: none;"/><g stroke="#000" transform="matrix(-1.8369701987210297e-16,-1,1,-1.8369701987210297e-16,91,69.99999999999999)" style="stroke: rgb(0, 0, 0); stroke-width: 1px;"><path d=" M10.93,-3.29 Q4.96,-0.45 0,0 Q4.96,0.45 10.93,3.29"/></g></g><g class="arrow-line"><path class="connection real" stroke-dasharray="" d="  M91,116 L91.88,130" style="stroke: rgb(0, 0, 0); stroke-width: 1px; fill: none;"/><g stroke="#000" transform="matrix(-0.06244213866229122,-0.9980485856506582,0.9980485856506582,-0.06244213866229122,92,132)" style="stroke: rgb(0, 0, 0); stroke-width: 1px;"><path d=" M10.93,-3.29 Q4.96,-0.45 0,0 Q4.96,0.45 10.93,3.29"/></g></g><g class="arrow-line"><path class="connection real" stroke-dasharray="" d="  M91,519 L91,539" style="stroke: rgb(0, 0, 0); stroke-width: 1px; fill: none;"/><g stroke="#000" transform="matrix(-1.8369701987210297e-16,-1,1,-1.8369701987210297e-16,91,541)" style="stroke: rgb(0, 0, 0); stroke-width: 1px;"><path d=" M10.93,-3.29 Q4.96,-0.45 0,0 Q4.96,0.45 10.93,3.29"/></g></g><g/></g><g/><g/><g/></svg>
        <svg xmlns="http://www.w3.org/2000/svg" width="457" height="600.9666748046875" style="width:457px;height:600.9666748046875px;font-family:Asana-Math, Asana;background:transparent;"><g><g><text x="45.66668701171875" y="75.06666564941406" style="white-space:pre;stroke:none;fill:rgb(0, 0, 0);font-size:15px;font-family:Arial, Helvetica, sans-serif;font-weight:400;font-style:normal;dominant-baseline:text-before-edge;text-decoration:rgb(0, 0, 0);">  Create new</text></g><g><text x="45.66668701171875" y="93.06666564941406" style="white-space:pre;stroke:none;fill:rgb(0, 0, 0);font-size:15px;font-family:Arial, Helvetica, sans-serif;font-weight:400;font-style:normal;dominant-baseline:text-before-edge;text-decoration:rgb(0, 0, 0);">Kalman object</text></g></g><g><g><text x="66.20001220703125" y="395.06666564941406" style="white-space:pre;stroke:none;fill:rgb(0, 0, 0);font-size:15px;font-family:Arial, Helvetica, sans-serif;font-weight:400;font-style:normal;dominant-baseline:text-before-edge;text-decoration:rgb(0, 0, 0);">Spin ros</text></g></g><g><g><text x="62.85003662109375" y="472.06666564941406" style="white-space:pre;stroke:none;fill:rgb(0, 0, 0);font-size:15px;font-family:Arial, Helvetica, sans-serif;font-weight:400;font-style:normal;dominant-baseline:text-before-edge;text-decoration:rgb(0, 0, 0);">ROS ok?</text></g></g><g><g><text x="53.91668701171875" y="550.0666656494141" style="white-space:pre;stroke:none;fill:rgb(0, 0, 0);font-size:15px;font-family:Arial, Helvetica, sans-serif;font-weight:400;font-style:normal;dominant-baseline:text-before-edge;text-decoration:rgb(0, 0, 0);">Exit progam</text></g></g><g><g><text x="58.183349609375" y="513.0666656494141" style="white-space:pre;stroke:none;fill:rgb(0, 0, 0);font-size:15px;font-family:Arial, Helvetica, sans-serif;font-weight:400;font-style:normal;dominant-baseline:text-before-edge;text-decoration:rgb(0, 0, 0);">no</text></g></g><g><g><text x="38.9666748046875" y="20.066665649414062" style="white-space:pre;stroke:none;fill:rgb(0, 0, 0);font-size:15px;font-family:Arial, Helvetica, sans-serif;font-weight:400;font-style:normal;dominant-baseline:text-before-edge;text-decoration:rgb(0, 0, 0);"> Initialising ROS</text></g></g><g><g><text x="53.60003662109375" y="143.06666564941406" style="white-space:pre;stroke:none;fill:rgb(0, 0, 0);font-size:15px;font-family:Arial, Helvetica, sans-serif;font-weight:400;font-style:normal;dominant-baseline:text-before-edge;text-decoration:rgb(0, 0, 0);">   Person</text></g><g><text x="53.60003662109375" y="161.06666564941406" style="white-space:pre;stroke:none;fill:rgb(0, 0, 0);font-size:15px;font-family:Arial, Helvetica, sans-serif;font-weight:400;font-style:normal;dominant-baseline:text-before-edge;text-decoration:rgb(0, 0, 0);">coordinates</text></g><g><text x="53.60003662109375" y="179.06666564941406" style="white-space:pre;stroke:none;fill:rgb(0, 0, 0);font-size:15px;font-family:Arial, Helvetica, sans-serif;font-weight:400;font-style:normal;dominant-baseline:text-before-edge;text-decoration:rgb(0, 0, 0);">  recived?</text></g></g><g><g><text x="208.20001220703125" y="152.06666564941406" style="white-space:pre;stroke:none;fill:rgb(0, 0, 0);font-size:15px;font-family:Arial, Helvetica, sans-serif;font-weight:400;font-style:normal;dominant-baseline:text-before-edge;text-decoration:rgb(0, 0, 0);">  Know</text></g><g><text x="208.20001220703125" y="170.06666564941406" style="white-space:pre;stroke:none;fill:rgb(0, 0, 0);font-size:15px;font-family:Arial, Helvetica, sans-serif;font-weight:400;font-style:normal;dominant-baseline:text-before-edge;text-decoration:rgb(0, 0, 0);">Person?</text></g></g><g><g><text x="332.66668701171875" y="152.06666564941406" style="white-space:pre;stroke:none;fill:rgb(0, 0, 0);font-size:15px;font-family:Arial, Helvetica, sans-serif;font-weight:400;font-style:normal;dominant-baseline:text-before-edge;text-decoration:rgb(0, 0, 0);">  Create new</text></g><g><text x="332.66668701171875" y="170.06666564941406" style="white-space:pre;stroke:none;fill:rgb(0, 0, 0);font-size:15px;font-family:Arial, Helvetica, sans-serif;font-weight:400;font-style:normal;dominant-baseline:text-before-edge;text-decoration:rgb(0, 0, 0);">Kalman object</text></g></g><g><g><text x="46.78338623046875" y="235.06666564941406" style="white-space:pre;stroke:none;fill:rgb(0, 0, 0);font-size:15px;font-family:Arial, Helvetica, sans-serif;font-weight:400;font-style:normal;dominant-baseline:text-before-edge;text-decoration:rgb(0, 0, 0);">  Update on </text></g><g><text x="46.78338623046875" y="253.06666564941406" style="white-space:pre;stroke:none;fill:rgb(0, 0, 0);font-size:15px;font-family:Arial, Helvetica, sans-serif;font-weight:400;font-style:normal;dominant-baseline:text-before-edge;text-decoration:rgb(0, 0, 0);">last prediction</text></g></g><g><g><text x="36.73333740234375" y="318.06666564941406" style="white-space:pre;stroke:none;fill:rgb(0, 0, 0);font-size:15px;font-family:Arial, Helvetica, sans-serif;font-weight:400;font-style:normal;dominant-baseline:text-before-edge;text-decoration:rgb(0, 0, 0);">publish estemate</text></g><g><text x="36.73333740234375" y="336.06666564941406" style="white-space:pre;stroke:none;fill:rgb(0, 0, 0);font-size:15px;font-family:Arial, Helvetica, sans-serif;font-weight:400;font-style:normal;dominant-baseline:text-before-edge;text-decoration:rgb(0, 0, 0);">  of the person</text></g></g><g><g><text x="181.9666748046875" y="235.06666564941406" style="white-space:pre;stroke:none;fill:rgb(0, 0, 0);font-size:15px;font-family:Arial, Helvetica, sans-serif;font-weight:400;font-style:normal;dominant-baseline:text-before-edge;text-decoration:rgb(0, 0, 0);">    Update on </text></g><g><text x="181.9666748046875" y="253.06666564941406" style="white-space:pre;stroke:none;fill:rgb(0, 0, 0);font-size:15px;font-family:Arial, Helvetica, sans-serif;font-weight:400;font-style:normal;dominant-baseline:text-before-edge;text-decoration:rgb(0, 0, 0);">new coordinates</text></g></g></svg>
</svg>
